PathFileType	4	(x/y/z)	A01_SLOW_T0027.trc
DataRate	CameraRate	NumFrames	NumMarkers	Units	OrigDataRate	OrigDataStartFrame	OrigNumFrames
240	240	4	48	mm	240	1	340
Frame#	Time	TOP_HEAD			R_AC			L_AC			R_ASIS			L_ASIS			R_PSIS			L_PSIS			SACRAL			L_IC			R_IC			L_GT			R_GT			R_LAT_KNEE			R_MED_KNEE			L_MED_KNEE			L_LAT_KNEE			R_TOE			L_TOE			R_1ST_MET			L_1ST_MET			L_5TH_MET			R_5TH_MET			R_LAT_ANK			R_MED_ANK			L_MED_ANK			L_LAT_ANK			L_HEEL_SUP			R_HEEL_SUP			L_HEEL_LAT			R_HEEL_LAT			L_HEEL_MED			R_HEEL_MED			R_LL_PROX_POST			R_LL_PROX_ANT			R_LL_DIST_ANT			R_LL_DIST_POST			R_THIGH_PROX_POST			R_THIGH_PROX_ANT			R_THIGH_DIST_ANT			R_THIGH_DIST_POST			L_PROS_PROX_ANT			L_PROS_PROX_POST			L_PROS_DIST_POST			L_PROS_DIST_ANT			L_THIGH_PROX_ANT			L_THIGH_PROX_POST			L_THIGH_DIST_POST			L_THIGH_DIST_ANT			
		X1	Y1	Z1	X2	Y2	Z2	X3	Y3	Z3	X4	Y4	Z4	X5	Y5	Z5	X6	Y6	Z6	X7	Y7	Z7	X8	Y8	Z8	X9	Y9	Z9	X10	Y10	Z10	X11	Y11	Z11	X12	Y12	Z12	X13	Y13	Z13	X14	Y14	Z14	X15	Y15	Z15	X16	Y16	Z16	X17	Y17	Z17	X18	Y18	Z18	X19	Y19	Z19	X20	Y20	Z20	X21	Y21	Z21	X22	Y22	Z22	X23	Y23	Z23	X24	Y24	Z24	X25	Y25	Z25	X26	Y26	Z26	X27	Y27	Z27	X28	Y28	Z28	X29	Y29	Z29	X30	Y30	Z30	X31	Y31	Z31	X32	Y32	Z32	X33	Y33	Z33	X34	Y34	Z34	X35	Y35	Z35	X36	Y36	Z36	X37	Y37	Z37	X38	Y38	Z38	X39	Y39	Z39	X40	Y40	Z40	X41	Y41	Z41	X42	Y42	Z42	X43	Y43	Z43	X44	Y44	Z44	X45	Y45	Z45	X46	Y46	Z46	X47	Y47	Z47	X48	Y48	Z48	

1	0	-676.18	1750.3	284.31	-897.06	1556.4	554.57	-966.72	1571.9	105.22	-919.89	1095.6	526.66	-903.14	1039.8	173.46	-1134.8	1097.6	389.68	-1119.2	1085.4	260.32	-1144.8	1062.4	323.52	-964.87	1164.7	134.49	-938.47	1193.3	537.76	-951.59	954.87	130.58	-998.72	990.34	561.28	-1101	596.48	491.93	NaN	NaN	NaN	-809.94	573.37	363.19	-831.04	575.71	204.22	-1059.8	64.871	386.83	-437.85	217.11	249.24	-1138.9	53.483	342.89	-498.68	152.69	299.99	-516.32	135.72	172.94	-1162.6	47.277	478.26	-1253.5	150.49	454.47	-1247.6	157.26	353.24	-647.77	165.64	285.19	-669.53	148.21	216.22	-720.92	60.14	252.69	-1360.4	146.68	402.07	-696.72	40.018	219.89	-1357.7	121.76	435.62	-689.7	41.798	284.13	-1356	117.87	374.57	-1238.6	450.78	488.23	-1173.5	423.71	507.43	-1189.5	351.68	489.28	-1242.2	368.22	477.78	-1071.6	864.6	534.8	-999.78	867.15	545.26	-1016.9	777.65	533.44	-1084.8	776.7	521.33	-751.86	522.76	215.2	-800.24	497.67	202.51	-777.3	439.1	208.01	-734.49	469.3	220.89	-846.53	832.31	183.4	-909.43	816.77	151.3	-879.99	748.78	170.68	-824.04	763.61	199.71
2	0.004179	-671.7	1749.1	283.43	-892.76	1555.6	553.88	-962.6	1570.8	104.6	-916.19	1095	526.43	-898.83	1038.8	173.26	-1130.7	1097	389.03	-1114.9	1084.6	259.74	-1140.7	1061.8	322.89	-960.08	1163.4	134.15	-935.02	1192.7	537.46	-947.13	953.93	130.39	-995.11	989.77	561.01	-1098.4	596.22	491.84	NaN	NaN	NaN	-805.28	572.65	363.22	-826.57	574.76	204.23	-1059.7	64.893	386.8	-433.6	215.68	249.35	-1138.9	53.446	342.85	-494.11	151.65	300.59	-512.33	134.36	173.26	-1162.5	47.332	478.25	-1252.9	150.98	454.47	-1247	157.7	353.17	-643.63	164.63	285.55	-665.5	147.13	216.7	-716.94	59.305	253.44	-1359.9	147.53	401.98	-692.88	39.092	220.61	-1357.3	122.58	435.53	-685.7	40.937	284.83	-1355.5	118.68	374.48	-1236.6	451.15	488.05	-1171.7	423.76	507.33	-1188	351.84	489.21	-1240.5	368.63	477.7	-1068.3	864.25	534.44	-996.51	866.62	545.11	-1013.8	777.15	533.32	-1081.7	776.36	521.04	-747.47	521.76	215.22	-795.86	496.68	202.64	-772.94	438.06	208.2	-730.1	468.26	220.95	-842.03	831.51	183.4	-904.9	815.9	151.3	-875.4	747.97	170.74	-819.5	762.82	199.74
3	0.0083579	-667.05	1747.9	282.51	-888.27	1554.8	553.15	-958.29	1569.6	103.95	-912.28	1094.4	526.19	-894.31	1037.9	173.06	-1126.4	1096.4	388.36	-1110.5	1083.8	259.14	-1136.4	1061.1	322.24	-955.05	1162.1	133.78	-931.39	1192	537.15	-942.48	952.94	130.21	-991.34	989.17	560.73	-1095.6	595.93	491.74	NaN	NaN	NaN	-800.43	571.89	363.23	-821.93	573.78	204.23	-1059.7	64.916	386.78	-429.23	214.1	249.46	-1138.8	53.407	342.82	-489.45	150.48	301.18	-508.27	132.88	173.59	-1162.3	47.389	478.24	-1252.3	151.49	454.48	-1246.4	158.15	353.12	-639.4	163.55	285.91	-661.4	145.98	217.19	-712.9	58.467	254.21	-1359.2	148.42	401.89	-689	38.156	221.35	-1356.9	123.43	435.43	-681.67	40.055	285.56	-1355	119.53	374.39	-1234.5	451.53	487.87	-1169.7	423.81	507.23	-1186.4	352	489.13	-1238.8	369.05	477.63	-1064.9	863.88	534.07	-993.1	866.07	544.96	-1010.6	776.62	533.2	-1078.4	776.01	520.75	-742.91	520.69	215.23	-791.33	495.65	202.76	-768.44	436.97	208.37	-725.55	467.17	221	-837.35	830.67	183.39	-900.19	815	151.31	-870.63	747.1	170.8	-814.77	761.98	199.76
4	0.012537	-662.23	1746.6	281.55	-883.61	1553.9	552.39	-953.83	1568.4	103.27	-908.2	1093.7	525.93	-889.62	1036.9	172.86	-1122	1095.7	387.66	-1105.8	1082.9	258.53	-1131.9	1060.3	321.57	-949.82	1160.7	133.4	-927.57	1191.2	536.81	-937.65	951.91	130.02	-987.44	988.54	560.45	-1092.7	595.63	491.65	NaN	NaN	NaN	-795.43	571.1	363.22	-817.14	572.75	204.22	-1059.6	64.937	386.76	-424.78	212.35	249.57	-1138.7	53.367	342.79	-484.77	149.17	301.75	-504.18	131.29	173.93	-1162.2	47.446	478.23	-1251.7	152.02	454.48	-1245.8	158.62	353.06	-635.13	162.4	286.28	-657.26	144.75	217.69	-708.87	57.639	255	-1358.6	149.35	401.79	-685.15	37.222	222.11	-1356.4	124.33	435.33	-677.65	39.162	286.3	-1354.5	120.42	374.3	-1232.3	451.93	487.69	-1167.7	423.85	507.13	-1184.8	352.17	489.06	-1237.1	369.49	477.57	-1061.3	863.49	533.68	-989.56	865.5	544.81	-1007.3	776.07	533.08	-1075.1	775.64	520.45	-738.22	519.57	215.22	-786.68	494.57	202.86	-763.83	435.83	208.53	-720.89	466.01	221.03	-832.5	829.77	183.36	-895.33	814.05	151.31	-865.71	746.18	170.86	-809.89	761.09	199.76
